# xmcd
#
# Track frame offsets:
# 150
# 17842
# 30687
# 56373
# 73922
# 89116
# 108033
# 122716
# 138012
# 155120
# 168674
# 184532
# 199779
# 211466
# 228088
# 244389
# 262253
# 277122
#
# Disc length: 3988 seconds
#
#
# Revision: 0
# Processed by: cddbd v1.5.1PL2 Copyright (c) Steve Scherf et al.
# Submitted via: FreeRIP 2.943 
#
DISCID=0e0f9212
DTITLE=Parada Sertaneja - 
DYEAR=1900
DGENRE=
TTITLE0=Me Apaixonei - Eduardo Costa
TTITLE1=Eu de ca você de lá - Rio Negro e Solimões
TTITLE2=Os amantes - Daniel
TTITLE3=Meu presente é você - Bruno e Marrone
TTITLE4=Roupa de lua de mel - Di Paulo e Paulino
TTITLE5=O que tem rosa - Di Paulo e Paulino
TTITLE6=É amor demais - Edson e Hudson
TTITLE7=Franguinho na panela - Guilherme e Santiago
TTITLE8=Fera mansa - Zezé di Camargo e Luciano
TTITLE9=Pé de pano - Teodoro e Sampaio
TTITLE10=Pele alivia e coração - Eduardo Costa
TTITLE11=Deus me livre - Rio Negro e Solimões
TTITLE12=Cai na real - Racine e Rafael
TTITLE13=Por que choras assim - Bruno e Marrone
TTITLE14=O que há - Leonardo
TTITLE15=A mulher e a Bebida - Gino e Geno
TTITLE16=Canalha - Crystian e Ralf
TTITLE17=De volta pro futuro - Rick e Renner
EXTD=
EXTT0=
EXTT1=
EXTT2=
EXTT3=
EXTT4=
EXTT5=
EXTT6=
EXTT7=
EXTT8=
EXTT9=
EXTT10=
EXTT11=
EXTT12=
EXTT13=
EXTT14=
EXTT15=
EXTT16=
EXTT17=
PLAYORDER=
